<?xml version="1.0" encoding="UTF-8"?>
<svg xmlns="http://www.w3.org/2000/svg" id="Layer_1" data-name="Layer 1" viewBox="0 0 512 512" width="512" height="512"><path d="M322.439,285.594l108.089-23.735a6,6,0,0,0,.023-11.714L322.213,225.916,359.076,161.1a6,6,0,0,0-8.151-8.2L285.6,189.561,261.86,81.592A5.887,5.887,0,0,0,256.014,77H256a5.894,5.894,0,0,0-5.854,4.564L225.921,189.351l-64.846-36.414a5.988,5.988,0,0,0-8.151,8.176l36.809,64.713L81.444,250.148a6,6,0,0,0,.028,11.713L189.561,285.6l-36.655,65.329a6,6,0,0,0,8.2,8.151l64.717-36.809,24.324,108.169A5.893,5.893,0,0,0,256,435h.014a5.887,5.887,0,0,0,5.846-4.592l23.834-108.477,65.2,37.115a5.986,5.986,0,0,0,8.2-8.125Zm-212.008-29.66,105.862-23.779-1.664,7.408a75.488,75.488,0,0,0,0,32.874l1.507,6.708Zm63.5,82.042,27.88-49.69,17.227,3.783,4.033,17.957ZM219.2,219.2l-17.228,3.87-27.95-49.141,49.153,27.578Zm36.732,182.365-29.34-130.622a32.975,32.975,0,0,0,57.513,2.322ZM235,256a21,21,0,1,1,21,21A21.024,21.024,0,0,1,235,256Zm21-33a33.027,33.027,0,0,0-29.406,18.054l29.34-130.622,28.173,128.3A33,33,0,0,0,256,223Zm145.51,32.946L295.064,279.321l1.589-7.235a75.512,75.512,0,0,0,0-32.172l-1.713-7.8Zm-63.534-82.014-28.01,49.245-17.866-4-3.814-17.371ZM288.389,309.719l3.84-17.49,17.96-3.943,27.879,49.69Z"/><path d="M272.5,256A16.5,16.5,0,1,0,256,272.5,16.519,16.519,0,0,0,272.5,256Zm-21,0a4.5,4.5,0,1,1,4.5,4.5A4.505,4.505,0,0,1,251.5,256Z"/><path d="M256,5A251,251,0,0,0,78.516,433.484,251,251,0,0,0,433.484,78.516,249.357,249.357,0,0,0,256,5Zm6,12.074A237.228,237.228,0,0,1,420.7,82.811l-21.376,21.375A208.136,208.136,0,0,0,262,47.2Zm-12,0V47.2a208.136,208.136,0,0,0-137.328,56.984L91.3,82.811A237.228,237.228,0,0,1,250,17.074ZM82.811,91.3l21.375,21.376A208.136,208.136,0,0,0,47.2,250H17.074A237.226,237.226,0,0,1,82.811,91.3ZM17.074,262H47.2a208.136,208.136,0,0,0,56.984,137.328L82.811,420.7A237.226,237.226,0,0,1,17.074,262ZM250,494.926A237.228,237.228,0,0,1,91.3,429.189l21.376-21.375A208.136,208.136,0,0,0,250,464.8ZM59.11,256C59.11,147.435,147.435,59.11,256,59.11S452.89,147.435,452.89,256,364.565,452.89,256,452.89,59.11,364.565,59.11,256ZM262,494.926V464.8a208.136,208.136,0,0,0,137.328-56.984L420.7,429.189A237.228,237.228,0,0,1,262,494.926ZM429.189,420.7l-21.375-21.376A208.136,208.136,0,0,0,464.8,262h30.128A237.226,237.226,0,0,1,429.189,420.7ZM464.8,250a208.136,208.136,0,0,0-56.984-137.328L429.189,91.3A237.226,237.226,0,0,1,494.926,250Z"/><path d="M82.994,222.583a5.99,5.99,0,0,0,7.183-4.517,171.277,171.277,0,0,1,75.5-106.192,6,6,0,1,0-6.383-10.162A183.36,183.36,0,0,0,78.477,215.4,6,6,0,0,0,82.994,222.583Z"/><path d="M181.676,102.346a5.974,5.974,0,0,0,2.532-.564c1.73-.807,3.5-1.595,5.253-2.342a6,6,0,1,0-4.7-11.042c-1.882.8-3.776,1.644-5.629,2.509a6,6,0,0,0,2.541,11.439Z"/></svg>
